<?xml version="1.0" encoding="UTF-8" standalone="no"?>
<!DOCTYPE svg PUBLIC "-//W3C//DTD SVG 1.1//EN"
 "http://www.w3.org/Graphics/SVG/1.1/DTD/svg11.dtd">
<!-- Generated by graphviz version 2.40.1 (20161225.0304)
 -->
<!-- Title: %3 Pages: 1 -->
<svg width="414pt" height="117pt"
 viewBox="0.00 0.00 414.00 117.15" xmlns="http://www.w3.org/2000/svg" xmlns:xlink="http://www.w3.org/1999/xlink">
<g id="graph0" class="graph" transform="scale(1 1) rotate(0) translate(4 113.1543)">
<title>%3</title>
<polygon fill="#ffffff" stroke="transparent" points="-4,4 -4,-113.1543 410,-113.1543 410,4 -4,4"/>
<!-- landing_height -->
<g id="node1" class="node">
<title>landing_height</title>
<polygon fill="#d3d3d3" stroke="#000000" points="69,-109.1543 0,-109.1543 0,-91.1543 69,-91.1543 69,-109.1543"/>
<text text-anchor="middle" x="34.5" y="-97.9543" font-family="Times,serif" font-size="9.00" fill="#000000">landing_height</text>
</g>
<!-- output -->
<g id="node7" class="node">
<title>output</title>
<ellipse fill="#add8e6" stroke="#000000" cx="160.5" cy="-27.5772" rx="27.6545" ry="27.6545"/>
<text text-anchor="middle" x="160.5" y="-25.3772" font-family="Times,serif" font-size="9.00" fill="#000000">output</text>
</g>
<!-- landing_height&#45;&gt;output -->
<g id="edge1" class="edge">
<title>landing_height&#45;&gt;output</title>
<path fill="none" stroke="#ff0000" stroke-width=".3907" d="M50.2032,-91.1091C69.4746,-80.0086 102.6606,-60.8932 127.6096,-46.5223"/>
<polygon fill="#ff0000" stroke="#ff0000" stroke-width=".3907" points="129.4693,-49.4903 136.3876,-41.4661 125.9753,-43.4246 129.4693,-49.4903"/>
</g>
<!-- rows_eliminated -->
<g id="node2" class="node">
<title>rows_eliminated</title>
<polygon fill="#d3d3d3" stroke="#000000" points="162,-109.1543 87,-109.1543 87,-91.1543 162,-91.1543 162,-109.1543"/>
<text text-anchor="middle" x="124.5" y="-97.9543" font-family="Times,serif" font-size="9.00" fill="#000000">rows_eliminated</text>
</g>
<!-- rows_eliminated&#45;&gt;output -->
<g id="edge4" class="edge">
<title>rows_eliminated&#45;&gt;output</title>
<path fill="none" stroke="#ff0000" stroke-width=".2537" d="M129.0594,-90.9624C132.7471,-83.528 138.1833,-72.5683 143.5025,-61.8448"/>
<polygon fill="#ff0000" stroke="#ff0000" stroke-width=".2537" points="146.7916,-63.0901 148.0998,-52.5763 140.5207,-59.9795 146.7916,-63.0901"/>
</g>
<!-- row_trans -->
<g id="node3" class="node">
<title>row_trans</title>
<polygon fill="#d3d3d3" stroke="#000000" points="339,-109.1543 286,-109.1543 286,-91.1543 339,-91.1543 339,-109.1543"/>
<text text-anchor="middle" x="312.5" y="-97.9543" font-family="Times,serif" font-size="9.00" fill="#000000">row_trans</text>
</g>
<!-- col_trans -->
<g id="node4" class="node">
<title>col_trans</title>
<polygon fill="#d3d3d3" stroke="#000000" points="406,-109.1543 357,-109.1543 357,-91.1543 406,-91.1543 406,-109.1543"/>
<text text-anchor="middle" x="381.5" y="-97.9543" font-family="Times,serif" font-size="9.00" fill="#000000">col_trans</text>
</g>
<!-- holes -->
<g id="node5" class="node">
<title>holes</title>
<polygon fill="#d3d3d3" stroke="#000000" points="215,-109.1543 180,-109.1543 180,-91.1543 215,-91.1543 215,-109.1543"/>
<text text-anchor="middle" x="197.5" y="-97.9543" font-family="Times,serif" font-size="9.00" fill="#000000">holes</text>
</g>
<!-- holes&#45;&gt;output -->
<g id="edge2" class="edge">
<title>holes&#45;&gt;output</title>
<path fill="none" stroke="#ff0000" stroke-width=".7026" d="M192.8139,-90.9624C188.9552,-83.3933 183.2335,-72.17 177.6727,-61.2622"/>
<polygon fill="#ff0000" stroke="#ff0000" stroke-width=".7026" points="180.7439,-59.5802 173.0838,-52.2608 174.5075,-62.7596 180.7439,-59.5802"/>
</g>
<!-- wells -->
<g id="node6" class="node">
<title>wells</title>
<polygon fill="#d3d3d3" stroke="#000000" points="268,-109.1543 233,-109.1543 233,-91.1543 268,-91.1543 268,-109.1543"/>
<text text-anchor="middle" x="250.5" y="-97.9543" font-family="Times,serif" font-size="9.00" fill="#000000">wells</text>
</g>
<!-- wells&#45;&gt;output -->
<g id="edge3" class="edge">
<title>wells&#45;&gt;output</title>
<path fill="none" stroke="#ff0000" stroke-width=".3286" d="M239.1014,-90.9624C226.8255,-81.0629 206.7987,-64.913 190.0329,-51.3929"/>
<polygon fill="#ff0000" stroke="#ff0000" stroke-width=".3286" points="192.0941,-48.5588 182.1127,-45.0059 187.6999,-54.0078 192.0941,-48.5588"/>
</g>
</g>
</svg>
